<svg width="94" height="17" viewBox="0 0 94 17" fill="none" xmlns="http://www.w3.org/2000/svg">
<path d="M6.264 0.219999C3.024 0.219999 0.594 2.56 0.594 6.736C0.594 11.002 2.88 13.306 6.3 13.306C8.028 13.306 9.378 12.532 10.206 11.704L8.892 10.012C8.154 10.57 7.434 11.02 6.444 11.02C4.788 11.02 3.69 9.742 3.69 6.736C3.69 3.676 4.806 2.398 6.408 2.398C7.254 2.398 7.956 2.722 8.658 3.262L10.062 1.588C9.018 0.705999 7.884 0.219999 6.264 0.219999ZM15.258 3.136C12.342 3.136 10.578 5.152 10.578 8.212C10.578 11.434 12.36 13.306 15.258 13.306C18.174 13.306 19.938 11.29 19.938 8.23C19.938 5.008 18.174 3.136 15.258 3.136ZM15.258 5.224C16.41 5.224 16.986 6.106 16.986 8.23C16.986 10.3 16.41 11.218 15.258 11.218C14.106 11.218 13.53 10.336 13.53 8.212C13.53 6.142 14.106 5.224 15.258 5.224ZM32.1777 3.136C30.9537 3.136 30.0717 3.64 29.3157 4.648C28.9377 3.676 28.1277 3.136 27.0657 3.136C25.8957 3.136 25.0137 3.622 24.2937 4.576L24.0777 3.442H21.6117V13H24.4557V6.466C24.8697 5.674 25.3197 5.224 25.9137 5.224C26.3457 5.224 26.7237 5.494 26.7237 6.502V13H29.5677V6.466C29.9817 5.674 30.4137 5.224 31.0257 5.224C31.4577 5.224 31.8177 5.494 31.8177 6.502V13H34.6617V6.016C34.6617 4.198 33.6537 3.136 32.1777 3.136ZM42.1464 3.136C41.1924 3.136 40.1844 3.514 39.3924 4.504L39.2484 3.442H36.7464V16.996L39.5904 16.69V12.316C40.1844 12.982 40.9764 13.306 41.9124 13.306C44.2704 13.306 45.7104 11.146 45.7104 8.194C45.7104 5.098 44.6124 3.136 42.1464 3.136ZM41.0304 11.218C40.4364 11.218 39.9864 10.948 39.5904 10.372V6.34C40.0044 5.638 40.5804 5.224 41.2284 5.224C42.1824 5.224 42.7584 5.854 42.7584 8.23C42.7584 10.372 42.0924 11.218 41.0304 11.218ZM55.4092 3.442H52.5652V10.084C52.1512 10.804 51.6112 11.2 51.0172 11.2C50.4232 11.2 50.0992 10.912 50.0992 9.94V3.442H47.2552V10.3C47.2552 12.154 48.1372 13.306 49.9192 13.306C51.1972 13.306 52.1332 12.802 52.8172 11.794L52.9432 13H55.4092V3.442ZM62.6697 10.75C62.2917 10.966 61.9677 11.056 61.6437 11.056C61.0497 11.056 60.7437 10.732 60.7437 9.814V5.422H62.6337L62.9397 3.442H60.7437V1.048L57.8997 1.372V3.442H56.5497V5.422H57.8997V9.85C57.8997 12.1 58.9257 13.288 61.0317 13.306C61.8957 13.306 62.9037 13.054 63.6237 12.55L62.6697 10.75ZM72.0636 10.228V6.52C72.0636 4.306 70.8756 3.136 68.1036 3.136C67.0236 3.136 65.7096 3.388 64.5036 3.838L65.1516 5.71C66.1056 5.386 67.0416 5.206 67.6536 5.206C68.8236 5.206 69.2736 5.548 69.2736 6.682V7.096H68.3016C65.4036 7.096 63.8196 8.23 63.8196 10.318C63.8196 12.064 65.0256 13.306 66.9336 13.306C68.0676 13.306 69.1296 12.928 69.8136 11.866C70.2456 12.82 70.9836 13.162 72.1176 13.252L72.7116 11.398C72.2616 11.236 72.0636 10.966 72.0636 10.228ZM67.7616 11.272C67.0596 11.272 66.6456 10.822 66.6456 10.066C66.6456 9.112 67.2756 8.662 68.5716 8.662H69.2736V10.354C68.9316 10.93 68.4276 11.272 67.7616 11.272ZM79.4949 3.172C78.3969 3.172 77.4609 3.964 77.0289 5.296L76.7769 3.442H74.3109V13H77.1549V8.194C77.4789 6.772 77.9649 5.926 79.1349 5.926C79.4409 5.926 79.6929 5.98 79.9989 6.052L80.4489 3.298C80.1249 3.208 79.8549 3.172 79.4949 3.172ZM89.5184 8.032C89.5184 4.936 87.8444 3.136 85.1084 3.136C82.2104 3.136 80.6444 5.404 80.6444 8.266C80.6444 11.254 82.2644 13.306 85.4504 13.306C86.9984 13.306 88.2224 12.73 89.1764 11.974L88.0064 10.39C87.1784 10.966 86.4944 11.236 85.7204 11.236C84.5504 11.236 83.7404 10.768 83.5424 9.058H89.4644C89.5004 8.77 89.5184 8.338 89.5184 8.032ZM86.7284 7.348H83.5424C83.6684 5.638 84.2264 5.026 85.1804 5.026C86.3144 5.026 86.7104 5.926 86.7284 7.222V7.348ZM92.0194 10.048C91.1014 10.048 90.3814 10.786 90.3814 11.668C90.3814 12.568 91.1014 13.306 92.0194 13.306C92.9194 13.306 93.6394 12.568 93.6394 11.668C93.6394 10.786 92.9194 10.048 92.0194 10.048Z" fill="#131313"/>
</svg>
